<svg width="20" height="24" viewBox="0 0 20 24" fill="none" xmlns="http://www.w3.org/2000/svg">
<path d="M10 7.5C12.0625 7.5 13.75 5.85938 13.75 3.75C13.75 1.6875 12.0625 0 10 0C7.89062 0 6.25 1.6875 6.25 3.75C6.25 5.85938 7.89062 7.5 10 7.5ZM7.46875 19.1719L8.6875 17.6719L5.78125 15.2812L3.625 17.9531C3.10938 18.6562 3.10938 19.5938 3.625 20.25L5.875 23.25C6.20312 23.7656 6.76562 24 7.375 24C7.75 24 8.125 23.9062 8.5 23.625C9.29688 23.0156 9.48438 21.8438 8.875 21L7.46875 19.1719ZM14.1719 15.2812L11.2656 17.6719L12.4844 19.1719L11.125 21C10.4688 21.8438 10.6562 23.0156 11.5 23.625C11.8281 23.9062 12.2031 24 12.625 24C13.1875 24 13.75 23.7656 14.125 23.25L16.375 20.25C16.8438 19.5938 16.8438 18.6562 16.3281 17.9531L14.1719 15.2812ZM18.625 6.79688C18.0625 5.95312 16.8906 5.76562 16.0469 6.375L14.125 7.6875C11.6406 9.42188 8.3125 9.42188 5.82812 7.6875L3.95312 6.375C3.0625 5.76562 1.9375 5.95312 1.32812 6.79688C0.71875 7.6875 0.953125 8.8125 1.79688 9.42188L3.67188 10.7812C4.46875 11.3438 5.35938 11.7656 6.25 12.0938V13.5H13.75V12.0938C14.6406 11.7656 15.4844 11.3438 16.2812 10.7812L18.2031 9.42188C19.0469 8.8125 19.2344 7.6875 18.625 6.79688Z" fill="#00BCD4"/>
</svg>
