<svg width="30" height="28" viewBox="0 0 30 28" fill="none" xmlns="http://www.w3.org/2000/svg">
<g clip-path="url(#clip0_0_563)">
<path d="M28.2457 14.6848L27.9745 14.6529C26.5518 14.4856 25.5342 13.2853 25.658 11.9203C25.6994 11.463 25.3762 11.0529 24.906 10.9666L22.7944 10.579C21.4837 10.3385 20.5618 9.19718 20.6499 7.92427L20.9146 4.10273C20.9508 3.58141 21.1508 3.09072 21.4931 2.68369L23.1608 0.700194C22.3376 0.386463 21.4664 0.17308 20.563 0.0701616C20.1512 0.0232414 19.7399 0 19.3314 0C17.0464 0 14.8415 0.726662 13.0178 2.09911C12.6418 2.3821 12.2927 2.68583 11.9697 3.00656C12.1081 3.06606 12.2423 3.12987 12.3712 3.19872C13.0795 3.57704 13.6101 4.19176 13.8653 4.92969C14.1197 5.66532 14.0787 6.4605 13.7497 7.16884L13.272 8.19704C15.2931 8.26819 17.1823 9.05413 18.6198 10.4294C21.2136 12.911 21.6456 16.6893 19.9164 19.6033C22.0074 19.4979 24.0103 18.7817 25.6897 17.5178C26.7563 16.715 27.6107 15.7486 28.2457 14.6848Z" fill="#FF7770"/>
<path d="M27.4072 3.69026C26.6504 2.76991 25.7492 2.00075 24.722 1.39746L22.7774 3.71022C22.6568 3.85372 22.5862 4.02691 22.5734 4.21098L22.3087 8.03246C22.2776 8.48127 22.6015 8.88353 23.0621 8.96802L25.1737 9.35563C26.5115 9.60112 27.4317 10.7645 27.3141 12.0616C27.2705 12.5429 27.6278 12.9659 28.1276 13.0246L28.9795 13.1248C30.1957 9.94022 29.6156 6.3762 27.4072 3.69026Z" fill="#FF7770"/>
<path d="M10.826 4.30991C9.7908 5.79325 9.2244 7.48375 9.12402 9.19393C9.84675 8.79773 10.6294 8.51397 11.4481 8.35155C11.479 8.26548 11.514 8.18 11.5533 8.09541L12.2924 6.50411C12.6168 5.80577 12.3389 5.00015 11.6461 4.63009C11.4024 4.49999 11.1279 4.39286 10.826 4.30991Z" fill="#FF7770"/>
<path d="M8.24207 21.9877C7.91928 21.7599 7.61198 21.5075 7.32307 21.231C7.03371 20.9542 6.77128 20.6611 6.53574 20.355L0.506371 26.1233C0.170402 26.4448 0.170402 26.9677 0.506371 27.2892L0.999117 27.7606C1.16042 27.9149 1.3751 27.9999 1.60353 27.9999C1.83202 27.9999 2.04663 27.9149 2.20794 27.7606L8.24207 21.9877Z" fill="#FF7770"/>
<path d="M17.4021 20.0727C19.8472 17.7334 19.8472 13.9272 17.4021 11.5879C16.2185 10.4555 14.6448 9.83182 12.9712 9.83182C11.2976 9.83182 9.72408 10.4555 8.54037 11.5879C6.09527 13.9272 6.09527 17.7334 8.54037 20.0727C9.72402 21.2052 11.2976 21.8288 12.9712 21.8288C14.6448 21.8288 16.2185 21.2052 17.4021 20.0727Z" fill="#FF7770"/>
</g>
<defs>
<clipPath id="clip0_0_563">
<rect width="29.3503" height="28" fill="white" transform="translate(0.253906)"/>
</clipPath>
</defs>
</svg>
