<svg width="19" height="24" viewBox="0 0 19 24" fill="none" xmlns="http://www.w3.org/2000/svg">
<path d="M16.5195 7.5H3.01946C1.75383 7.5 0.76946 8.53125 0.76946 9.75V20.25C0.76946 21.5156 1.75383 22.5 3.01946 22.5H3.76946V23.25C3.76946 23.6719 4.09758 24 4.51946 24H6.01946C6.39446 24 6.76946 23.6719 6.76946 23.25V22.5H12.7695V23.25C12.7695 23.6719 13.0976 24 13.5195 24H15.0195C15.3945 24 15.7695 23.6719 15.7695 23.25V22.5H16.5195C17.7382 22.5 18.7695 21.5156 18.7695 20.25V9.75C18.7695 8.53125 17.7382 7.5 16.5195 7.5ZM15.7695 17.625C15.7695 17.8594 15.582 18 15.3945 18H4.14446C3.91008 18 3.76946 17.8594 3.76946 17.625V16.875C3.76946 16.6875 3.91008 16.5 4.14446 16.5H15.3945C15.582 16.5 15.7695 16.6875 15.7695 16.875V17.625ZM15.7695 13.125C15.7695 13.3594 15.582 13.5 15.3945 13.5H4.14446C3.91008 13.5 3.76946 13.3594 3.76946 13.125V12.375C3.76946 12.1875 3.91008 12 4.14446 12H15.3945C15.582 12 15.7695 12.1875 15.7695 12.375V13.125ZM7.51946 2.25H12.0195V6H14.2695V2.25C14.2695 1.03125 13.2382 0 12.0195 0H7.51946C6.25383 0 5.26946 1.03125 5.26946 2.25V6H7.51946V2.25Z" fill="#9B51E0"/>
</svg>
