<svg width="25" height="22" viewBox="0 0 25 22" fill="none" xmlns="http://www.w3.org/2000/svg">
<path d="M1.7893 20C1.7893 20.8438 2.44555 21.5 3.2893 21.5H10.7893V14H1.7893V20ZM13.7893 21.5H21.2893C22.0862 21.5 22.7893 20.8438 22.7893 20V14H13.7893V21.5ZM22.7893 6.5H20.7737C21.1018 5.9375 21.2893 5.32812 21.2893 4.625C21.2893 2.375 19.4143 0.5 17.1643 0.5C15.1956 0.5 13.9299 1.53125 12.3362 3.73438C10.6956 1.53125 9.42993 0.5 7.50805 0.5C5.21118 0.5 3.38305 2.375 3.38305 4.625C3.38305 5.32812 3.52368 5.9375 3.8518 6.5H1.7893C0.945555 6.5 0.289305 7.20312 0.289305 8V11.75C0.289305 12.1719 0.61743 12.5 1.0393 12.5H23.5393C23.9143 12.5 24.2893 12.1719 24.2893 11.75V8C24.2893 7.20312 23.5862 6.5 22.7893 6.5ZM7.46118 6.5C6.42993 6.5 5.58618 5.70312 5.58618 4.625C5.58618 3.59375 6.42993 2.75 7.46118 2.75C8.39868 2.75 9.1018 2.9375 11.5393 6.5H7.46118ZM17.1643 6.5H13.0862C15.5237 2.9375 16.1799 2.75 17.1643 2.75C18.1956 2.75 19.0393 3.59375 19.0393 4.625C19.0393 5.70312 18.1956 6.5 17.1643 6.5Z" fill="#F653A2"/>
</svg>
