<svg width="16" height="24" viewBox="0 0 16 24" fill="none" xmlns="http://www.w3.org/2000/svg">
<path d="M10.8166 10.9688L5.75412 9.46875C5.14475 9.32812 4.76975 8.76562 4.76975 8.15625C4.76975 7.40625 5.37912 6.75 6.12912 6.75H9.22287C9.83225 6.75 10.3947 6.9375 10.8635 7.26562C11.1447 7.45312 11.5197 7.40625 11.7541 7.17188L13.3947 5.57812C13.7229 5.25 13.676 4.73438 13.301 4.40625C12.176 3.51562 10.7229 3.04688 9.26975 3V0.75C9.26975 0.375 8.89475 0 8.51975 0H7.01975C6.59787 0 6.26975 0.375 6.26975 0.75V3H6.12912C3.12912 3 0.738497 5.57812 1.01975 8.625C1.20725 10.7812 2.84787 12.5625 4.95725 13.1719L9.7385 14.5781C10.3479 14.7188 10.7697 15.2812 10.7697 15.8906C10.7697 16.6406 10.1135 17.25 9.3635 17.25H6.26975C5.70725 17.25 5.14475 17.1094 4.676 16.7812C4.34787 16.5938 3.97287 16.6406 3.7385 16.875L2.09787 18.4688C1.76975 18.7969 1.81662 19.3125 2.19162 19.5938C3.3635 20.5312 4.76975 21 6.26975 21V23.25C6.26975 23.6719 6.59787 24 7.01975 24H8.51975C8.89475 24 9.26975 23.6719 9.26975 23.25V21C11.426 20.9531 13.4885 19.6875 14.1916 17.625C15.2229 14.7188 13.5354 11.7656 10.8166 10.9688Z" fill="#81B214"/>
</svg>
