<svg width="19" height="24" viewBox="0 0 19 24" fill="none" xmlns="http://www.w3.org/2000/svg">
<path d="M17.1644 0H1.41437C0.758116 0 0.289366 0.515625 0.289366 1.125V1.875C0.289366 2.53125 0.758116 3 1.41437 3C1.41437 7.26562 3.80499 10.875 7.03937 12C3.80499 13.1719 1.41437 16.7812 1.41437 21C0.758116 21 0.289366 21.5156 0.289366 22.125V22.875C0.289366 23.5312 0.758116 24 1.41437 24H17.1644C17.7737 24 18.2894 23.5312 18.2894 22.875V22.125C18.2894 21.5156 17.7737 21 17.1644 21C17.1644 16.7812 14.7269 13.1719 11.4925 12C14.7269 10.875 17.1644 7.26562 17.1644 3C17.7737 3 18.2894 2.53125 18.2894 1.875V1.125C18.2894 0.515625 17.7737 0 17.1644 0ZM13.6019 18H4.92999C5.72687 15.8438 7.36749 14.25 9.28937 14.25C11.1644 14.25 12.805 15.8438 13.6019 18ZM13.6019 6H4.92999C4.55499 5.10938 4.41437 4.07812 4.41437 3H14.1644C14.1644 4.07812 13.9769 5.10938 13.6019 6Z" fill="#413E65"/>
</svg>
